# xmcd CD database file
#
# Track frame offsets:
#	183
#	14713
#	28120
#	42958
#	56600
#	70278
#	83568
#	95740
#	109375
#	123300
#	136138
#	148355
#	162090
#	175700
#	189120
#	203455
#	217185
#	230998
#	244103
#	256958
#	270818
#	281643
#	296283
#
# Disc length: 4134 seconds
#
# Revision: 0
# Processed by: cddbd v1.5.2PL0 Copyright (c) Steve Scherf et al.
# Submitted via: CDex 1.70beta1
#
DISCID=54102417
DTITLE=Lionel Hampton - Early Hamp
DYEAR=1900
DGENRE=Jazz
TTITLE0=Ramble 
TTITLE1=Moonlight Blues 
TTITLE2=Charlie's Idea 
TTITLE3=Over Night Blues 
TTITLE4=Quality Shout 
TTITLE5=Stuff - Paul Howard
TTITLE6=Harlem 
TTITLE7=Cuttin' Up
TTITLE8=New Kinda Blues 
TTITLE9=California Swing
TTITLE10=Burma Girl
TTITLE11=Gettin' Ready Blues
TTITLE12=Over Night Blues 
TTITLE13=To You Sweetheart, Aloha - Louis Armstrong 
TTITLE14=On a Coconut Island - Louis Armstrong 
TTITLE15=You Came to My Rescue - Teddy Wilson
TTITLE16=Here's Love in Your Eyes - Teddy Wilson 
TTITLE17=You Turned the Tables on Me - Teddy Wilson 
TTITLE18=Sing Baby Sing - Teddy Wilson 
TTITLE19=Sunday - Eddie Condon 
TTITLE20=California, Here I Come - Eddie Condon
TTITLE21=Sunday - Eddie Condon
TTITLE22=California, Here I Come - Eddie Condon 
EXTD=
EXTT0=
EXTT1=
EXTT2=
EXTT3=
EXTT4=
EXTT5=
EXTT6=
EXTT7=
EXTT8=
EXTT9=
EXTT10=
EXTT11=
EXTT12=
EXTT13=
EXTT14=
EXTT15=
EXTT16=
EXTT17=
EXTT18=
EXTT19=
EXTT20=
EXTT21=
EXTT22=
PLAYORDER=
